#define chat_width 16
#define chat_height 16
static unsigned char chat_bits[] = {
   0x00, 0x00, 0x00, 0x00, 0xf0, 0x07, 0xf8, 0x0f, 0xfc, 0x1f, 0xfc, 0x1f,
   0xfc, 0x1f, 0xfc, 0x1f, 0xf8, 0x0f, 0xf0, 0x07, 0x00, 0x07, 0x00, 0x0c,
   0x00, 0x18, 0x00, 0x00, 0x00, 0x00, 0x00, 0x00 };
