#define irc_width 16
#define irc_height 16
static unsigned char irc_bits[] = {
   0x00, 0x00, 0x00, 0x00, 0x00, 0x00, 0x60, 0x06, 0x60, 0x06, 0xf8, 0x1f,
   0xf8, 0x1f, 0x60, 0x06, 0x60, 0x06, 0xf8, 0x1f, 0xf8, 0x1f, 0x60, 0x06,
   0x60, 0x06, 0x00, 0x00, 0x00, 0x00, 0x00, 0x00 };
