#define slack_width 16
#define slack_height 16
static unsigned char slack_bits[] = {
   0x00, 0x00, 0x00, 0x00, 0xc0, 0x0f, 0xf0, 0x0f, 0x3c, 0x1c, 0x1c, 0x18,
   0x9c, 0x3b, 0x3c, 0x3e, 0x7c, 0x3c, 0xdc, 0x39, 0x18, 0x38, 0x38, 0x3c,
   0xf0, 0x0f, 0xf0, 0x03, 0x00, 0x00, 0x00, 0x00 };
