#define slack_width 16
#define slack_height 16
static unsigned char slack_bits[] = {
   0x00, 0x00, 0x20, 0x06, 0x70, 0x06, 0x60, 0x06, 0x00, 0x26, 0x7e, 0x76,
   0x7e, 0x36, 0x00, 0x00, 0x00, 0x00, 0x6c, 0x7e, 0x6e, 0x7e, 0x64, 0x00,
   0x60, 0x06, 0x60, 0x0e, 0x60, 0x04, 0x00, 0x00 };
